<?xml version="1.0" standalone="no"?>
<!DOCTYPE svg PUBLIC "-//W3C//DTD SVG 20010904//EN"
 "http://www.w3.org/TR/2001/REC-SVG-20010904/DTD/svg10.dtd">
<svg version="1.0" xmlns="http://www.w3.org/2000/svg"
 width="626.000000pt" height="626.000000pt" viewBox="0 0 626.000000 626.000000"
 preserveAspectRatio="xMidYMid meet">

<g transform="translate(0.000000,626.000000) scale(0.100000,-0.100000)"
fill="#000000" stroke="none">
<path d="M4325 4695 c-137 -37 -383 -177 -817 -465 -70 -47 -128 -91 -128 -98
0 -11 7 -9 28 5 246 161 623 393 708 436 133 67 251 110 290 105 30 -3 32 -1
-120 -100 -8 -5 -7 -11 1 -19 9 -9 35 -1 110 34 135 63 180 73 251 57 l57 -13
-125 -42 c-156 -52 -302 -117 -449 -201 -107 -62 -277 -169 -256 -162 6 2 109
53 230 113 121 61 270 130 330 154 112 44 284 93 298 84 11 -6 9 -49 -5 -78
-9 -20 -18 -25 -49 -25 -135 0 -742 -323 -1379 -733 -426 -274 -690 -478 -702
-542 -3 -21 2 -18 -315 -115 -162 -49 -269 -68 -317 -56 -33 8 -33 26 -1 64
14 17 21 33 16 36 -14 9 -71 -62 -71 -90 0 -41 37 -48 167 -34 l111 13 59 -33
c32 -18 88 -53 124 -76 37 -24 78 -44 93 -44 28 0 96 25 96 35 0 3 -23 45 -50
94 -28 49 -50 91 -50 95 0 3 8 6 18 6 24 0 160 45 260 86 110 45 228 105 449
226 205 112 178 107 342 61 l94 -27 23 29 c13 17 24 33 24 37 0 4 -32 17 -70
29 -39 13 -67 26 -63 30 11 9 243 53 249 46 3 -3 -14 -30 -38 -59 -49 -60
-113 -166 -105 -174 3 -3 49 36 102 87 78 75 100 91 113 83 38 -24 36 -39 -14
-101 -27 -34 -58 -76 -69 -95 l-19 -33 29 19 c17 10 60 43 98 74 66 53 68 54
92 38 14 -9 25 -21 25 -26 0 -6 -25 -41 -55 -77 -30 -37 -55 -71 -55 -75 0
-13 51 16 108 61 28 23 54 41 58 41 8 0 137 -105 154 -125 7 -8 -30 4 -81 26
-79 34 -97 39 -118 29 -29 -13 -32 -11 107 -94 l112 -67 60 47 c33 26 60 49
60 52 0 3 -39 57 -86 119 l-86 112 -57 -5 c-77 -8 -116 12 -143 72 -22 51 -18
91 14 137 l19 27 -36 60 c-20 34 -34 67 -31 75 2 7 83 60 178 116 359 212 563
369 629 483 49 86 35 185 -33 222 -13 8 -48 14 -78 14 -30 0 -98 7 -150 15
-112 17 -102 17 -165 0z"/>
<path d="M4086 4513 c-9 -9 -7 -33 3 -33 12 0 22 28 12 34 -5 3 -11 3 -15 -1z"/>
<path d="M4022 4468 c-16 -16 -15 -28 3 -28 8 0 15 9 15 20 0 23 -2 24 -18 8z"/>
<path d="M3956 4424 c-4 -9 -4 -19 -2 -21 8 -8 26 8 26 23 0 19 -16 18 -24 -2z"/>
<path d="M3893 4385 c-3 -9 -3 -18 0 -21 9 -9 27 6 27 22 0 19 -19 18 -27 -1z"/>
<path d="M3833 4345 c-8 -22 6 -33 17 -15 13 20 12 30 0 30 -6 0 -13 -7 -17
-15z"/>
<path d="M3777 4324 c-4 -4 -7 -17 -7 -28 0 -19 1 -19 17 -3 12 11 14 20 7 27
-6 6 -13 7 -17 4z"/>
<path d="M3714 4276 c-10 -27 2 -43 14 -19 8 14 9 24 2 28 -6 3 -13 -1 -16 -9z"/>
<path d="M1575 4232 c-22 -11 -48 -29 -58 -40 -19 -21 -19 -21 70 -48 48 -14
180 -55 293 -89 189 -58 206 -62 223 -47 9 8 14 19 10 23 -5 3 -61 19 -125 35
-65 15 -116 30 -114 32 3 3 167 -24 268 -44 l26 -5 -49 -66 c-28 -36 -48 -68
-45 -70 6 -6 136 88 156 112 6 7 17 12 23 10 7 -2 45 -9 85 -15 l72 -12 -48
-61 c-27 -34 -55 -72 -61 -85 -12 -23 -12 -23 16 -9 15 9 61 43 100 76 40 34
78 61 85 61 6 0 40 -5 74 -11 l63 -11 -60 -75 c-61 -77 -84 -113 -73 -113 10
0 102 69 163 123 30 26 60 47 67 47 7 0 86 -61 174 -135 89 -74 166 -135 171
-135 17 0 70 30 161 92 98 65 288 215 288 227 0 7 -134 31 -173 31 -11 0 -57
-25 -103 -56 -83 -55 -196 -103 -242 -104 -45 0 -90 30 -112 74 -24 50 -25 81
-5 119 11 21 11 29 2 32 -7 2 -165 24 -352 49 -816 110 -907 118 -970 88z"/>
<path d="M3105 4228 c-60 -43 -165 -153 -176 -185 -22 -67 29 -143 96 -143 45
0 140 50 205 108 l54 49 -38 18 c-46 22 -86 79 -93 134 -3 23 -8 41 -12 41 -3
0 -19 -10 -36 -22z"/>
<path d="M3652 4238 c-16 -16 -15 -28 3 -28 8 0 15 9 15 20 0 23 -2 24 -18 8z"/>
<path d="M3586 4194 c-4 -9 -4 -19 -2 -21 8 -8 26 8 26 23 0 19 -16 18 -24 -2z"/>
<path d="M3523 4155 c-3 -9 -3 -18 0 -21 9 -9 27 6 27 22 0 19 -19 18 -27 -1z"/>
<path d="M3463 4115 c-8 -22 6 -33 17 -15 13 20 12 30 0 30 -6 0 -13 -7 -17
-15z"/>
<path d="M3400 4069 c0 -18 2 -19 15 -9 8 7 15 16 15 21 0 5 -7 9 -15 9 -9 0
-15 -9 -15 -21z"/>
<path d="M2220 3981 l-25 -20 30 -11 c63 -25 90 -24 108 3 16 24 15 25 -12 30
-16 3 -39 9 -52 12 -15 3 -33 -2 -49 -14z"/>
<path d="M2446 3917 l-30 -24 50 -17 49 -17 23 27 c27 31 21 40 -28 49 -28 4
-41 1 -64 -18z"/>
<path d="M2661 3860 c-19 -16 -33 -31 -30 -33 2 -2 85 -46 184 -97 l180 -93
-80 74 c-44 41 -102 95 -130 120 -66 61 -82 65 -124 29z"/>
<path d="M1962 3774 c-39 -25 -72 -49 -72 -52 0 -12 120 -385 125 -391 3 -2
45 -8 93 -11 81 -6 89 -5 112 16 14 12 147 101 295 199 149 97 272 178 274
181 2 2 -3 6 -12 9 -9 4 -83 -31 -181 -85 -92 -51 -172 -90 -179 -87 -7 3 -85
56 -173 119 -87 63 -170 122 -184 131 -24 16 -27 15 -98 -29z"/>
<path d="M4134 3761 c-72 -48 -131 -110 -140 -147 -9 -35 19 -91 52 -106 35
-16 100 2 167 47 65 42 92 64 86 68 -2 2 -16 11 -31 20 -39 24 -62 63 -68 115
l-5 44 -61 -41z"/>
<path d="M2807 3663 c-4 -3 -7 -13 -7 -21 0 -12 3 -12 15 -2 8 7 15 16 15 21
0 11 -14 12 -23 2z"/>
<path d="M2747 3634 c-4 -4 -7 -17 -7 -28 0 -19 1 -19 17 -3 12 11 14 20 7 27
-6 6 -13 7 -17 4z"/>
<path d="M2686 3593 c-9 -9 -7 -33 3 -33 12 0 22 28 12 34 -5 3 -11 3 -15 -1z"/>
<path d="M2616 3544 c-9 -22 -8 -24 9 -24 8 0 15 9 15 20 0 24 -15 27 -24 4z"/>
<path d="M3740 3435 c-26 -28 -26 -31 11 -40 20 -5 28 -1 38 18 25 48 -10 63
-49 22z"/>
<path d="M3865 3378 l-27 -21 32 -14 c29 -12 34 -11 46 4 18 24 17 31 -5 42
-15 8 -25 6 -46 -11z"/>
<path d="M3020 3276 c-119 -63 -119 -64 -107 -121 2 -10 16 -28 31 -39 30 -23
41 -16 53 37 3 17 15 32 28 37 13 5 26 14 30 20 4 7 28 21 54 32 42 19 44 21
24 29 -32 12 -29 23 3 15 24 -6 26 -5 22 18 -3 14 0 27 6 30 6 2 2 4 -9 4 -11
0 -72 -28 -135 -62z"/>
<path d="M3513 3260 c-12 -5 -24 -19 -28 -31 -4 -12 -25 -41 -47 -65 -32 -35
-38 -47 -32 -69 5 -22 11 -25 30 -21 19 5 25 2 30 -19 3 -14 9 -25 13 -25 27
1 46 52 30 82 -8 15 -7 24 5 37 9 10 16 23 16 29 0 7 7 12 15 12 18 0 20 -21
4 -37 -19 -19 7 -54 35 -47 13 3 27 1 30 -5 4 -7 -1 -11 -14 -11 -13 0 -24 -8
-27 -20 -3 -11 -9 -17 -14 -14 -5 3 -9 -4 -9 -16 0 -23 -13 -30 -61 -33 -30
-2 -34 1 -40 28 -6 29 -13 17 -10 -16 1 -9 -14 -27 -34 -39 -19 -12 -35 -26
-35 -31 0 -5 -11 -11 -25 -15 l-25 -6 20 -25 c26 -33 16 -53 -24 -50 -30 2
-31 0 -34 -40 -3 -38 -1 -43 23 -49 26 -6 55 9 55 30 1 18 37 56 54 56 8 0 18
5 21 11 4 6 21 -4 41 -25 36 -37 41 -51 22 -59 -10 -4 -10 -6 0 -6 7 -1 16 9
21 21 6 18 3 26 -15 41 -13 10 -24 25 -24 33 0 26 60 -27 80 -71 19 -39 22
-39 24 0 1 11 8 20 16 20 8 0 16 -9 18 -20 7 -34 22 -45 58 -40 35 4 39 -1 28
-41 -8 -28 -57 -37 -104 -17 -31 12 -36 12 -47 -3 -7 -9 -18 -14 -25 -10 -50
26 -62 37 -63 58 0 21 -4 23 -40 20 -22 -1 -52 -7 -67 -13 -15 -6 -32 -8 -38
-4 -13 8 -49 -33 -50 -56 0 -9 -9 -24 -21 -35 -51 -46 -73 -161 -42 -213 45
-72 74 -84 143 -59 27 9 35 8 44 -3 6 -8 18 -14 26 -14 11 0 14 -9 12 -38 -2
-21 1 -44 8 -52 17 -20 19 -86 3 -117 -9 -20 -11 -47 -7 -97 10 -99 13 -102
76 -54 120 93 178 160 178 207 0 32 52 116 71 116 10 0 48 76 49 97 0 6 -8 9
-20 6 -14 -4 -23 2 -30 18 -5 13 -14 31 -19 39 -10 16 -23 49 -26 65 -1 10 -6
24 -26 73 -15 39 10 25 27 -15 9 -21 22 -51 30 -68 7 -16 14 -41 16 -55 2 -20
8 -24 28 -22 13 1 27 8 32 14 14 25 20 135 8 158 -10 18 -9 24 0 30 16 10 7
118 -14 158 -7 15 -14 39 -14 54 1 66 -118 264 -206 346 -49 45 -50 45 -83 32z
m127 -150 c0 -5 -2 -10 -4 -10 -3 0 -8 5 -11 10 -3 6 -1 10 4 10 6 0 11 -4 11
-10z m39 -237 c10 -17 10 -17 11 0 0 9 7 17 16 17 8 0 13 -4 10 -9 -3 -4 6
-18 19 -31 31 -29 24 -41 -19 -29 -22 6 -43 6 -60 -1 -23 -8 -26 -7 -26 11 0
25 17 59 30 59 5 0 14 -8 19 -17z m-19 -578 c0 -8 -7 -15 -15 -15 -9 0 -12 6
-9 15 4 8 10 15 15 15 5 0 9 -7 9 -15z"/>
<path d="M3161 3178 c11 -21 22 -22 50 -7 28 14 14 29 -26 26 -28 -2 -32 -5
-24 -19z"/>
<path d="M2758 3146 c-24 -17 -23 -26 3 -26 11 0 17 5 14 10 -3 6 1 10 9 10 9
0 16 5 16 10 0 14 -22 12 -42 -4z"/>
<path d="M2695 3099 c-4 -6 -7 -27 -8 -47 0 -20 -6 -44 -13 -52 -6 -8 -14 -23
-15 -33 -5 -24 -23 -23 -27 2 -2 11 -11 23 -21 26 -32 10 -62 45 -56 65 5 15
2 17 -15 13 -20 -5 -19 -9 20 -79 22 -40 40 -84 40 -97 0 -14 7 -28 16 -31 12
-5 13 -8 2 -20 -11 -12 -14 -12 -21 0 -11 19 -27 8 -27 -17 0 -10 -5 -19 -11
-19 -6 0 -8 9 -4 22 6 18 4 20 -11 13 -11 -4 -41 -10 -69 -12 -45 -4 -56 -1
-112 36 -34 23 -66 41 -70 41 -11 0 -43 -143 -43 -187 0 -18 4 -33 9 -33 5 0
12 -10 16 -22 4 -16 8 -19 12 -9 6 16 63 -75 63 -102 0 -20 55 -57 86 -57 31
0 68 -21 104 -60 17 -18 34 -30 38 -26 4 4 -1 12 -11 17 -10 6 -17 22 -17 39
0 25 -4 30 -25 30 -22 0 -24 2 -15 26 13 33 13 34 -4 34 -8 0 -16 -7 -20 -15
-7 -19 -40 -19 -55 -1 -27 33 17 127 52 113 8 -3 19 -1 25 5 18 18 60 0 70
-29 10 -27 10 -26 11 13 1 30 7 46 26 62 14 13 25 33 25 47 0 14 3 24 8 23 4
-2 29 19 55 45 27 26 54 47 60 46 8 0 8 -2 0 -6 -7 -2 -13 -9 -13 -14 0 -5 9
-4 20 3 13 8 16 16 10 22 -6 6 -10 18 -10 29 0 14 -5 17 -22 12 -23 -7 -23 -7
-3 9 11 8 31 16 44 16 14 0 35 10 47 21 l23 22 -23 18 c-13 10 -26 33 -30 51
-5 24 -9 29 -18 20 -18 -18 -27 -15 -38 13 -10 26 -43 34 -55 14z m-35 -258
c0 -5 -8 -11 -17 -15 -10 -3 -25 -9 -33 -12 -8 -3 -1 4 15 15 34 24 35 24 35
12z"/>
<path d="M3310 3050 c0 -16 4 -30 10 -30 5 0 7 -13 4 -30 -6 -27 -4 -30 20
-30 31 0 33 15 7 54 -11 17 -18 32 -16 35 1 3 -3 12 -11 19 -12 11 -14 8 -14
-18z"/>
<path d="M3277 3013 c-4 -3 -7 -15 -7 -25 0 -26 24 -17 28 10 3 21 -8 29 -21
15z"/>
<path d="M2836 2933 c-8 -20 -3 -25 24 -21 21 3 21 3 1 20 -17 15 -20 15 -25
1z"/>
<path d="M3445 2810 c-3 -5 -1 -10 4 -10 6 0 11 5 11 10 0 6 -2 10 -4 10 -3 0
-8 -4 -11 -10z"/>
<path d="M2285 2620 c3 -5 8 -10 11 -10 2 0 4 5 4 10 0 6 -5 10 -11 10 -5 0
-7 -4 -4 -10z"/>
<path d="M2606 2565 c10 -8 23 -15 28 -15 6 0 1 7 -10 15 -10 8 -23 15 -28 15
-6 0 -1 -7 10 -15z"/>
<path d="M2660 2540 c0 -5 7 -10 16 -10 8 0 12 5 9 10 -3 6 -10 10 -16 10 -5
0 -9 -4 -9 -10z"/>
<path d="M2632 2442 c-12 -12 -26 -21 -31 -18 -4 3 -5 -8 -3 -24 2 -16 -3 -38
-12 -52 -9 -12 -16 -32 -16 -45 0 -28 35 -85 81 -132 35 -36 35 -38 38 -131 2
-100 5 -108 55 -128 24 -11 28 -10 23 2 -4 9 5 18 24 26 19 8 28 18 25 26 -3
8 1 14 10 14 20 0 53 39 54 63 0 11 13 24 34 32 33 14 56 53 56 95 0 9 9 25
20 35 11 10 20 26 20 35 0 20 -41 51 -71 53 -10 1 -19 4 -19 8 0 9 -50 30 -59
24 -5 -2 -6 6 -4 19 5 24 -26 56 -55 56 -7 0 -22 9 -33 19 -23 21 -90 33 -100
18 -4 -5 -9 -1 -11 9 -3 18 -5 17 -26 -4z"/>
</g>
</svg>
